# xmcd
#
# Track frame offsets: 
#        150
#        14224
#        31576
#        48891
#
# Disc length: 940 seconds
#
# Revision: 1
# Processed by: cddbd v1.5.2PL0 Copyright (c) Steve Scherf et al.
# Submitted via: ExactAudioCopy v1.0b3
#
DISCID=2703aa04
DTITLE=Helene Fischer - Die Hoelle morgen frueh (Single)
DYEAR=2012
DGENRE=Schlager
TTITLE0=Die Hoelle morgen frueh (Radio Version)
TTITLE1=Und wenn's so waer
TTITLE2=Die Hoelle morgen frueh (Dance Mix)
TTITLE3=Die Hoelle morgen frueh (Album Version)
EXTD=
EXTT0=
EXTT1=
EXTT2=
EXTT3=
PLAYORDER=
